<?xml version="1.0" encoding="UTF-8" standalone="no"?>
<svg
   xmlns:dc="http://purl.org/dc/elements/1.1/"
   xmlns:cc="http://creativecommons.org/ns#"
   xmlns:rdf="http://www.w3.org/1999/02/22-rdf-syntax-ns#"
   xmlns:svg="http://www.w3.org/2000/svg"
   xmlns="http://www.w3.org/2000/svg"
   xmlns:sodipodi="http://sodipodi.sourceforge.net/DTD/sodipodi-0.dtd"
   xmlns:inkscape="http://www.inkscape.org/namespaces/inkscape"
   width="300"
   height="260"
   id="svg3165"
   version="1.1"
   inkscape:version="0.48.4 r9943 custom"
   sodipodi:docname="logo.svg">
  <metadata
     id="metadata3188">
    <rdf:RDF>
      <cc:Work
         rdf:about="">
        <dc:format>image/svg+xml</dc:format>
        <dc:type
           rdf:resource="http://purl.org/dc/dcmitype/StillImage" />
      </cc:Work>
    </rdf:RDF>
  </metadata>
  <sodipodi:namedview
     pagecolor="#ffffff"
     bordercolor="#666666"
     borderopacity="1"
     objecttolerance="10"
     gridtolerance="10"
     guidetolerance="10"
     inkscape:pageopacity="0"
     inkscape:pageshadow="2"
     inkscape:window-width="1280"
     inkscape:window-height="751"
     id="namedview3186"
     showgrid="false"
     inkscape:zoom="0.90769231"
     inkscape:cx="150"
     inkscape:cy="121.18644"
     inkscape:window-x="0"
     inkscape:window-y="23"
     inkscape:window-maximized="0"
     inkscape:current-layer="svg3165" />
  <defs
     id="defs3167">
    <clipPath
       id="a">
      <path
         d="M-687.333 19.41l-607.913-1.73 305.456-525.603z"
         fill="#364e59"
         id="path3170" />
    </clipPath>
  </defs>
  <path
     d="M-967.82-160.96l141.164 79.48-142.687-77.298 132.694 92.935-134.423-90.912L-848.127-51.26l-124.865-103.65L-860.98-37.874l-114.103-115.39L-875.08-25.81l-102.246-126.02 87.028 136.64-89.4-135.432L-906.482-6.11l-75.695-143.543L-923.48 1.34l-61.26-150.27 43.617 156.018-46.237-155.552 28.113 159.543-30.767-159.337 12.34 161.53-15-161.583-3.553 161.963.91-162.277-19.412 160.835 16.812-161.406-35.08 158.158 32.55-158.98-50.416 153.956 47.976-155.025-65.262 148.275 62.94-149.577-79.48 141.165 77.297-142.687-92.935 132.694 90.912-134.423-105.494 122.944 103.65-124.865-117.037 112.012 115.39-114.104L-1140.36-59.65l126.018-102.244-136.64 87.028 135.433-89.4-144.512 73.215 143.544-75.696-150.993 58.7 150.27-61.262-156.02 43.616 155.554-46.237-159.544 28.115 159.336-30.767-161.53 12.34 161.583-15.002-161.963-3.552 162.276.91-160.834-19.41 161.405 16.81-158.158-35.082 158.982 32.55-153.96-50.414 155.026 47.976-148.274-65.262 149.576 62.94-141.164-79.482 142.687 77.3-132.693-92.936 134.423 90.91-122.945-105.493 124.865 103.65-112.013-117.035 114.104 115.39-100-127.453 102.244 126.018-87.03-136.64 89.402 135.433-73.216-144.513 75.695 143.543-58.7-150.993 61.262 150.272-43.616-156.02 46.238 155.553-28.114-159.543 30.768 159.335-12.34-161.53 15 161.584 3.553-161.962-.91 162.277 19.41-160.835-16.81 161.406 35.082-158.157-32.55 158.98 50.415-153.957-47.976 155.025 65.262-148.275-62.94 149.576 79.48-141.164-77.297 142.686 92.936-132.693-90.912 134.422 105.494-122.945-103.65 124.865 117.037-112.014-115.39 114.105 127.452-100.003-126.018 102.245 136.64-87.028-135.433 89.4 144.512-73.216-143.544 75.697 150.993-58.7-150.273 61.262 156.02-43.617-155.553 46.236 159.544-28.114-159.336 30.767 161.53-12.34-161.584 15 161.963 3.554-162.276-.91 160.835 19.41-161.407-16.81 158.158 35.082-158.98-32.55 153.957 50.413-155.026-47.976 148.276 65.262z"
     transform="translate(639.193 250.54) scale(.4935)"
     clip-path="url(#a)"
     fill="#fc4349"
     id="path3172" />
  <path
     clip-path="url(#a)"
     transform="translate(639.193 250.54) scale(.4935)"
     d="M-959.86-155.97l268.586 172.19-270.637-169.25 250.415 197.685-252.745-194.962 229.834 221.28-232.418-218.797 207.037 242.74-209.853-240.523 182.248 261.866-185.267-259.936 155.704 278.468-158.897-276.842 127.66 292.39-130.997-291.086 98.384 303.494-101.834-302.522 68.163 311.676-71.69-311.048 37.284 316.856-40.858-316.576 6.047 318.985-9.63-319.058-25.248 318.042 21.687-318.465-56.3 314.035 52.8-314.805-86.81 307.005 83.402-308.114-116.483 297.02 113.2-298.457-145.035 284.17 141.908-285.922-172.19 268.587 169.25-270.637-197.686 250.416 194.962-252.744-221.28 229.833 218.798-232.418-242.742 207.038 240.524-209.853L-1282.43 28.04l259.935-185.267-278.468 155.703 276.843-158.897-292.39 127.657 291.085-130.996-303.494 98.386 302.524-101.835-311.676 68.165 311.047-71.692-316.856 37.285 316.575-40.858-318.985 6.05 319.057-9.633-318.042-25.246 318.465 21.688-314.036-56.298 314.806 52.798-307.006-86.808 308.114 83.4-297.018-116.482 298.456 113.2-284.17-145.035 285.922 141.908-268.586-172.188 270.637 169.25-250.417-197.686 252.745 194.962-229.834-221.28 232.418 218.797-207.038-242.74 209.853 240.523-182.247-261.866 185.266 259.935-155.702-278.47 158.896 276.844-127.658-292.388 130.996 291.084-98.384-303.493 101.834 302.522-68.163-311.676 71.69 311.047-37.284-316.857 40.86 316.577-6.05-318.985 9.632 319.057 25.247-318.043-21.69 318.464 56.3-314.034-52.8 314.805 86.81-307.004-83.4 308.114 116.48-297.018-113.198 298.456 145.034-284.17-141.908 285.922 172.19-268.587-169.25 270.637 197.686-250.415L-965.74-201.93l221.28-229.834-218.796 232.417 242.742-207.037-240.524 209.853 261.866-182.25-259.935 185.268 278.468-155.703-276.842 158.897 292.39-127.658-291.085 130.996 303.494-98.385-302.523 101.834 311.676-68.164-311.047 71.692 316.856-37.286L-954.3-176.43l318.985-6.048-319.056 9.632 318.042 25.246-318.464-21.688 314.036 56.3-314.806-52.8 307.006 86.81-308.115-83.402 297.018 116.483-298.456-113.2 284.17 145.034z"
     fill="#2c3e50"
     id="path3174" />
  <path
     d="M175.572 124.474l25.303 44.136-25.572 43.982-50.875-.155L99.125 168.3l25.572-43.98z"
     fill="#2c3e50"
     id="path3176" />
  <path
     inkscape:connector-curvature="0"
     id="path3200"
     style="font-size:98.1230011px;font-weight:bold;text-align:start;line-height:125%;letter-spacing:0;word-spacing:0;fill:#fc4349;font-family:DIN Alternate;-inkscape-font-specification:DIN Alternate Bold"
     d="m 141.19786,169.90196 0,2.94353 5.64403,0 0,-39.37315 -5.64403,0 0,14.3126 0,0 c -1.04421,-0.99015 -2.1334,-1.8003 -3.26759,-2.43044 -1.22424,-0.59408 -2.55648,-0.89113 -3.99673,-0.89116 -3.42063,0.09 -5.92309,1.31426 -7.50736,3.67266 -0.77415,0.88219 -1.28725,2.0434 -1.53928,3.48364 -0.30607,1.42228 -0.45909,3.81671 -0.45909,7.1833 0,3.31262 0.15302,5.68905 0.45909,7.1293 0.25203,1.51228 0.76513,2.70949 1.53928,3.59165 0.84614,1.0802 1.89933,1.94435 3.15957,2.59247 1.20621,0.66612 2.65547,1.01719 4.34779,1.05319 2.98853,-0.072 5.40996,-1.16121 7.26432,-3.26759 l 0,0 m -5.53601,-19.7946 c 1.33223,3e-5 2.38542,0.26107 3.15958,0.78315 0.77412,0.52211 1.30522,1.20623 1.59329,2.05237 0.36004,0.84617 0.60309,1.76434 0.72913,2.7545 0.036,0.99019 0.054,2.02538 0.054,3.10556 -2e-5,0.99019 -0.018,1.99838 -0.054,3.02455 -0.12604,1.0442 -0.36909,1.98937 -0.72913,2.83552 -0.28807,0.84616 -0.81917,1.53028 -1.59329,2.05237 -0.77416,0.5401 -1.82735,0.81015 -3.15958,0.81014 -1.33225,1e-5 -2.34944,-0.25203 -3.05155,-0.75613 -0.77416,-0.52209 -1.34126,-1.18821 -1.70131,-1.99836 -0.34207,-0.84615 -0.56711,-1.80032 -0.67512,-2.86252 -0.10803,-1.00817 -0.16204,-2.04336 -0.16203,-3.10557 -1e-5,-1.11619 0.054,-2.20538 0.16203,-3.26759 0.10801,-0.99016 0.33305,-1.90833 0.67512,-2.7545 0.36005,-0.84614 0.92715,-1.51225 1.70131,-1.99836 0.70211,-0.45007 1.7193,-0.6751 3.05155,-0.67513 l 0,0" />
  <path
     inkscape:connector-curvature="0"
     id="path3202"
     style="font-size:98.1230011px;font-weight:bold;text-align:start;line-height:125%;letter-spacing:0;word-spacing:0;fill:#fc4349;font-family:DIN Alternate;-inkscape-font-specification:DIN Alternate Bold"
     d="m 153.16104,172.84549 5.64402,0 0,-2.94353 0,0 c 1.87233,2.10638 4.28476,3.19558 7.23731,3.26759 1.7463,-0.036 3.24057,-0.38707 4.48282,-1.05319 1.2602,-0.64812 2.27739,-1.51227 3.05155,-2.59247 0.77412,-0.88216 1.30521,-2.07937 1.59329,-3.59165 0.27003,-1.44025 0.40505,-3.81668 0.40507,-7.1293 -2e-5,-3.36659 -0.13504,-5.76102 -0.40507,-7.1833 -0.28808,-1.44024 -0.81917,-2.60145 -1.59329,-3.48364 -1.58431,-2.3584 -4.09576,-3.58262 -7.53437,-3.67266 -1.44027,3e-5 -2.72751,0.29708 -3.8617,0.89116 -1.22423,0.63014 -2.34943,1.44029 -3.37561,2.43044 l 0,0 0,-14.3126 -5.64402,0 0,39.37315 m 11.18003,-22.73813 c 1.33222,3e-5 2.38541,0.22506 3.15957,0.67513 0.77412,0.48611 1.32322,1.15222 1.6473,1.99836 0.36004,0.84617 0.60309,1.76434 0.72913,2.7545 0.036,1.06221 0.054,2.1514 0.054,3.26759 -2e-5,1.06221 -0.018,2.0974 -0.054,3.10557 -0.12604,1.0622 -0.36909,2.01637 -0.72913,2.86252 -0.32408,0.81015 -0.87318,1.47627 -1.6473,1.99836 -0.77416,0.5041 -1.82735,0.75614 -3.15957,0.75613 -1.26025,1e-5 -2.25943,-0.27004 -2.99755,-0.81014 -0.77415,-0.52209 -1.34125,-1.20621 -1.70131,-2.05237 -0.34207,-0.84615 -0.56711,-1.79132 -0.67512,-2.83552 -0.10803,-1.02617 -0.16204,-2.03436 -0.16203,-3.02455 -1e-5,-1.08018 0.054,-2.11537 0.16203,-3.10556 0.10801,-0.99016 0.33305,-1.90833 0.67512,-2.7545 0.36006,-0.84614 0.92716,-1.53026 1.70131,-2.05237 0.73812,-0.52208 1.7373,-0.78312 2.99755,-0.78315 l 0,0" />
  <path
     inkscape:connector-curvature="0"
     id="path3191"
     style="font-size:54.65999985px;font-weight:bold;text-align:start;line-height:125%;letter-spacing:0;word-spacing:0;fill:#fc4349;font-family:DIN Alternate;-inkscape-font-specification:DIN Alternate Bold"
     d="m 133.76938,195.4511 0,7.98796 3.14403,0 0,-21.93304 -3.14403,0 0,1.62467 0,0 c -1.03298,-1.16333 -2.37684,-1.77008 -4.03159,-1.82023 -1.91551,0.0502 -3.31453,0.73211 -4.19706,2.04587 -0.43125,0.49143 -0.71707,1.13829 -0.85747,1.94058 -0.1705,0.7923 -0.25574,2.13615 -0.25574,4.0316 0,1.8453 0.0852,3.16911 0.25574,3.97141 0.1404,0.80231 0.42622,1.4592 0.85747,1.97067 0.47134,0.60173 1.05803,1.08311 1.76005,1.44415 0.67193,0.37106 1.48426,0.56663 2.43701,0.58669 0.79227,0 1.52939,-0.17551 2.21135,-0.52652 0.63181,-0.32092 1.23856,-0.76219 1.82024,-1.32381 l 0,0 m -3.08387,-1.29372 c -0.74214,1e-5 -1.30876,-0.14039 -1.69988,-0.4212 -0.43125,-0.29084 -0.74715,-0.6619 -0.94773,-1.1132 -0.19055,-0.47135 -0.31591,-0.99286 -0.37608,-1.5645 -0.0602,-0.56161 -0.0903,-1.13827 -0.0903,-1.72997 -1e-5,-0.62178 0.0301,-1.22853 0.0903,-1.82024 0.0602,-0.59169 0.18553,-1.11319 0.37608,-1.5645 0.20058,-0.47134 0.51648,-0.84241 0.94773,-1.1132 0.39112,-0.2507 0.95774,-0.37606 1.69988,-0.37608 0.74212,2e-5 1.32881,0.14543 1.76006,0.43626 0.43123,0.29085 0.72708,0.67194 0.88755,1.14329 0.2106,0.47136 0.34599,0.98283 0.40617,1.5344 0.0201,0.58169 0.0301,1.16837 0.0301,1.76007 -10e-6,0.55159 -0.01,1.10317 -0.0301,1.65475 -0.0602,0.58168 -0.19557,1.10819 -0.40617,1.57954 -0.16047,0.47136 -0.45632,0.85246 -0.88755,1.14329 -0.43125,0.30086 -1.01794,0.4513 -1.76006,0.45129 l 0,0" />
  <path
     inkscape:connector-curvature="0"
     id="path3193"
     style="font-size:54.65999985px;font-weight:bold;text-align:start;line-height:125%;letter-spacing:0;word-spacing:0;fill:#fc4349;font-family:DIN Alternate;-inkscape-font-specification:DIN Alternate Bold"
     d="m 141.23365,191.88585 c 0.0201,1.76508 0.59671,3.09892 1.72997,4.00151 1.04299,0.92265 2.21135,1.39401 3.50508,1.41407 1.66477,0 3.01365,-0.61678 4.04663,-1.85033 l 0.0602,0 0,1.6698 3.14404,0 0,-15.61488 -3.14404,0 0,9.29672 c -1e-5,1.05303 -0.29084,1.8754 -0.8725,2.46709 -0.57166,0.59171 -1.30878,0.88756 -2.21136,0.88755 -0.9026,1e-5 -1.64474,-0.29584 -2.2264,-0.88755 -0.59171,-0.59169 -0.88756,-1.41406 -0.88755,-2.46709 l 0,-9.29672 -3.14404,0 0,10.37983" />
  <path
     inkscape:connector-curvature="0"
     id="path3195"
     style="font-size:54.65999985px;font-weight:bold;text-align:start;line-height:125%;letter-spacing:0;word-spacing:0;fill:#fc4349;font-family:DIN Alternate;-inkscape-font-specification:DIN Alternate Bold"
     d="m 158.60202,197.1209 3.14404,0 0,-15.61488 -3.14404,0 0,15.61488 m 0,-18.789 3.14404,0 0,-3.14404 -3.14404,0 0,3.14404" />
  <path
     inkscape:connector-curvature="0"
     id="path3197"
     style="font-size:54.65999985px;font-weight:bold;text-align:start;line-height:125%;letter-spacing:0;word-spacing:0;fill:#fc4349;font-family:DIN Alternate;-inkscape-font-specification:DIN Alternate Bold"
     d="m 163.93108,197.1209 11.64347,0 0,-2.96352 -7.82249,0 7.82249,-10.15418 0,-2.49718 -11.22226,0 0,2.76795 7.40127,0 -7.82248,10.34975 0,2.49718" />
</svg>
